HIERARCHY
ROOT Hips
{
	OFFSET	0.00	0.00	0.00
	CHANNELS 6 Xposition Yposition Zposition Zrotation Xrotation Yrotation
	JOINT LeftHip
	{
		OFFSET	 3.430000	 0.000000	 0.000000
		CHANNELS 3 Zrotation Xrotation Yrotation
		JOINT LeftKnee
		{
			OFFSET	 0.000000	-18.469999	 0.000000
			CHANNELS 3 Zrotation Xrotation Yrotation
			JOINT LeftAnkle
			{
				OFFSET	 0.000000	-17.950001	 0.000000
				CHANNELS 3 Zrotation Xrotation Yrotation
				End Site 
				{
					OFFSET	 0.000000	-3.119996	 0.000000
				}
			}
		}
	}
	JOINT RightHip
	{
		OFFSET	-3.430000	 0.000000	 0.000000
		CHANNELS 3 Zrotation Xrotation Yrotation
		JOINT RightKnee
		{
			OFFSET	 0.000000	-18.809999	 0.000000
			CHANNELS 3 Zrotation Xrotation Yrotation
			JOINT RightAnkle
			{
				OFFSET	 0.000000	-17.570000	 0.000000
				CHANNELS 3 Zrotation Xrotation Yrotation
				End Site 
				{
					OFFSET	 0.000000	-3.250000	 0.000000
				}
			}
		}
	}
	JOINT Chest
	{
		OFFSET	 0.000000	 4.570000	 0.000000
		CHANNELS 3 Zrotation Xrotation Yrotation
		JOINT LeftCollar
		{
			OFFSET	 1.060000	 15.330000	 1.760000
			CHANNELS 3 Zrotation Xrotation Yrotation
			JOINT LeftShoulder
			{
				OFFSET	 5.810000	 0.000000	 0.000000
				CHANNELS 3 Zrotation Xrotation Yrotation
				JOINT LeftElbow
				{
					OFFSET	 0.000000	-12.080000	 0.000000
					CHANNELS 3 Zrotation Xrotation Yrotation
					JOINT LeftWrist
					{
						OFFSET	 0.000000	-9.820000	 0.000000
						CHANNELS 3 Zrotation Xrotation Yrotation
						End Site 
						{
							OFFSET	 0.000000	-7.369996	 0.000000
						}
					}
				}
			}
		}
		JOINT RightCollar
		{
			OFFSET	-1.060000	 15.330000	 1.760000
			CHANNELS 3 Zrotation Xrotation Yrotation
			JOINT RightShoulder
			{
				OFFSET	-6.060000	 0.000000	 0.000000
				CHANNELS 3 Zrotation Xrotation Yrotation
				JOINT RightElbow
				{
					OFFSET	 0.000000	-11.900000	 0.000000
					CHANNELS 3 Zrotation Xrotation Yrotation
					JOINT RightWrist
					{
						OFFSET	 0.000000	-9.520000	 0.000000
						CHANNELS 3 Zrotation Xrotation Yrotation
						End Site 
						{
							OFFSET	 0.000000	-7.140012	 0.000000
						}
					}
				}
			}
		}
		JOINT Neck
		{
			OFFSET	 0.000000	 17.620001	 0.000000
			CHANNELS 3 Zrotation Xrotation Yrotation
			JOINT Head
			{
				OFFSET	 0.000000	 5.190000	 0.000000
				CHANNELS 3 Zrotation Xrotation Yrotation
				End Site 
				{
					OFFSET	 0.000000	 4.140009	 0.000000
				}
			}
		}
	}
}
MOTION
Frames:     22
Frame Time: 0.033333
 0.00	 39.58	 0.00	-0.27	-12.65	 0.67	 13.98	 11.35	-2.81	 2.00	 2.50	 8.67	-3.84	 2.89	 2.11	 1.11	 16.39	-0.31	 1.66	-0.13	-26.66	-7.21	-8.13	 1.86	 1.90	 17.53	-1.60	-14.67	 0.00	 2.70	 32.29	 13.19	 5.15	 0.00	-24.16	 15.66	 0.00	 0.00	 0.00	 15.03	 0.00	 12.58	-24.24	 17.01	-3.35	 0.00	-34.99	-17.90	 0.00	 0.00	 0.00	-5.87	 47.59	 0.00	 7.87	-41.27	 9.75	
 0.02	 39.61	 0.06	-0.14	-12.43	 0.48	 13.73	 11.52	-2.79	 2.04	 2.11	 9.06	-3.84	 2.87	 2.11	 0.89	 16.22	-0.25	 1.60	-0.03	-26.36	-7.21	-8.05	 1.87	 1.67	 17.27	-0.98	-14.60	 0.00	 2.28	 31.75	 13.22	 5.48	 0.00	-24.16	 15.67	 0.00	 0.00	 0.00	 14.68	 0.00	 12.33	-23.97	 16.65	-3.12	 0.00	-34.58	-17.69	 0.00	 0.00	 0.00	-6.04	 47.14	 0.00	 8.11	-40.81	 9.37	
 0.07	 39.62	 0.15	 0.12	-12.43	 0.23	 13.23	 12.02	-2.80	 2.22	 1.61	 9.43	-3.84	 2.97	 2.12	 0.45	 16.32	-0.13	 1.66	 0.03	-26.15	-7.21	-8.06	 1.87	 1.34	 17.24	-0.42	-14.55	 0.00	 1.90	 31.20	 13.17	 5.81	 0.00	-23.94	 15.84	 0.00	 0.00	 0.00	 14.25	 0.00	 12.30	-23.59	 16.40	-2.88	 0.00	-34.25	-17.48	 0.00	 0.00	 0.00	-6.11	 46.74	 0.00	 8.02	-40.36	 8.86	
 0.11	 39.62	 0.23	 0.31	-12.34	 0.22	 12.94	 12.14	-2.77	 2.27	 1.47	 9.52	-3.84	 2.98	 2.12	 0.16	 16.33	-0.04	 1.77	 0.05	-26.26	-7.21	-8.18	 1.85	 1.13	 17.13	-0.20	-14.50	 0.00	 1.58	 30.74	 12.98	 6.28	 0.00	-23.60	 16.09	 0.00	 0.00	 0.00	 13.86	 0.00	 12.45	-23.11	 16.26	-2.79	 0.00	-34.12	-17.31	 0.00	 0.00	 0.00	-6.17	 46.36	 0.00	 7.97	-40.00	 8.45	
 0.14	 39.61	 0.29	 0.44	-12.25	 0.59	 12.84	 11.84	-2.68	 2.21	 1.87	 9.25	-3.84	 2.82	 2.11	-0.01	 16.43	 0.00	 1.94	-0.06	-26.70	-7.21	-8.33	 1.83	 1.11	 17.04	-0.29	-14.47	 0.00	 1.15	 30.35	 12.59	 7.14	 0.00	-23.12	 16.45	 0.00	 0.00	 0.00	 13.32	 0.00	 12.49	-22.46	 15.99	-2.82	 0.00	-34.02	-17.13	 0.00	 0.00	 0.00	-6.40	 45.97	 0.00	 8.27	-39.65	 8.18	
 0.17	 39.61	 0.34	 0.69	-12.07	 1.29	 12.64	 10.88	-2.42	 2.21	 3.12	 8.58	-3.84	 2.50	 2.08	-0.22	 16.55	 0.06	 2.12	-0.36	-27.46	-7.22	-8.45	 1.82	 1.03	 16.91	-0.68	-14.42	 0.00	 0.68	 30.09	 12.02	 8.38	 0.00	-22.53	 16.92	 0.00	 0.00	 0.00	 12.82	 0.00	 12.64	-21.84	 15.65	-2.66	 0.00	-33.74	-16.86	 0.00	 0.00	 0.00	-6.74	 45.61	 0.00	 8.87	-39.29	 8.18	
 0.21	 39.60	 0.37	 1.08	-11.70	 2.23	 12.30	 9.11	-1.98	 2.20	 5.42	 7.69	-3.84	 1.82	 2.04	-0.52	 16.51	 0.15	 2.34	-0.71	-28.40	-7.22	-8.60	 1.80	 0.77	 16.60	-1.18	-14.29	 0.00	 0.20	 29.89	 11.26	 10.06	 0.00	-21.82	 17.49	 0.00	 0.00	 0.00	 12.34	 0.00	 12.83	-21.20	 15.22	-2.31	 0.00	-33.18	-16.47	 0.00	 0.00	 0.00	-6.75	 45.22	 0.00	 9.16	-38.89	 7.89	
 0.26	 39.59	 0.39	 1.56	-11.17	 3.30	 11.88	 6.67	-1.40	 1.85	 8.73	 7.40	-3.84	 0.65	 1.96	-0.88	 16.36	 0.25	 2.46	-1.15	-29.48	-7.22	-8.68	 1.79	 0.38	 16.16	-1.71	-14.16	 0.00	-0.30	 29.83	 10.37	 11.60	 0.00	-20.97	 18.25	 0.00	 0.00	 0.00	 11.91	 0.00	 13.10	-20.59	 14.75	-1.93	 0.00	-32.38	-16.00	 0.00	 0.00	 0.00	-6.58	 44.99	 0.00	 9.25	-38.77	 7.54	
 0.36	 39.60	 0.42	 2.18	-10.63	 4.32	 11.26	 4.17	-0.83	 0.87	 12.40	 8.35	-3.84	-0.85	 1.86	-1.43	 16.23	 0.40	 2.47	-1.58	-30.47	-7.22	-8.66	 1.79	-0.22	 15.69	-2.02	-14.08	 0.00	-0.97	 29.97	 9.60	 12.75	 0.00	-20.13	 19.11	 0.00	 0.00	 0.00	 11.53	 0.00	 13.37	-20.07	 14.26	-1.57	 0.00	-31.39	-15.49	 0.00	 0.00	 0.00	-6.37	 45.02	 0.00	 9.37	-39.04	 7.33	
 0.52	 39.63	 0.48	 2.93	-10.08	 5.12	 10.32	 2.14	-0.39	-0.77	 15.53	 10.27	-3.84	-2.34	 1.76	-2.21	 16.13	 0.61	 2.32	-1.96	-31.35	-7.22	-8.50	 1.81	-1.04	 15.16	-1.94	-14.13	 0.00	-1.78	 30.21	 8.99	 14.23	 0.00	-19.37	 19.96	 0.00	 0.00	 0.00	 11.31	 0.00	 13.54	-19.73	 13.77	-1.59	 0.00	-30.13	-14.99	 0.00	 0.00	 0.00	-5.87	 45.15	 0.00	 9.05	-39.37	 6.74	
 0.76	 39.69	 0.59	 3.67	-9.65	 5.69	 9.02	 1.03	-0.16	-2.76	 17.30	 12.65	-3.84	-3.39	 1.69	-3.13	 16.22	 0.88	 2.09	-2.39	-32.11	-7.21	-8.21	 1.85	-1.90	 14.62	-1.58	-14.31	 0.00	-2.51	 30.39	 8.38	 16.23	 0.00	-18.71	 20.72	 0.00	 0.00	 0.00	 11.22	 0.00	 13.64	-19.58	 13.27	-2.23	 0.00	-28.60	-14.52	 0.00	 0.00	 0.00	-5.13	 44.83	 0.00	 8.22	-39.02	 5.64	
 1.07	 39.76	 0.76	 4.43	-9.31	 5.92	 7.23	 0.95	-0.12	-4.55	 17.31	 15.62	-3.85	-3.78	 1.66	-4.30	 16.42	 1.22	 1.90	-2.77	-32.58	-7.21	-7.81	 1.90	-2.75	 14.02	-0.98	-14.55	 0.00	-3.19	 30.43	 7.77	 18.06	 0.00	-18.10	 21.44	 0.00	 0.00	 0.00	 10.95	 0.00	 13.85	-19.28	 12.71	-3.79	 0.00	-26.82	-14.03	 0.00	 0.00	 0.00	-4.41	 44.16	 0.00	 7.24	-37.99	 4.46	
 1.44	 39.83	 0.98	 5.04	-9.12	 5.87	 5.09	 1.89	-0.17	-5.42	 15.62	 19.20	-3.84	-3.45	 1.68	-5.49	 16.78	 1.59	 1.76	-3.10	-32.76	-7.20	-7.45	 1.95	-3.43	 13.33	-0.25	-14.86	 0.00	-4.03	 30.28	 7.19	 20.04	 0.00	-17.45	 22.29	 0.00	 0.00	 0.00	 10.76	 0.00	 14.18	-19.09	 11.92	-6.24	 0.00	-24.66	-13.49	 0.00	 0.00	 0.00	-3.97	 43.88	 0.00	 6.70	-37.09	 3.83	
 1.84	 39.86	 1.24	 5.32	-9.01	 5.61	 2.88	 3.44	-0.17	-4.86	 12.82	 22.97	-3.84	-2.82	 1.73	-6.34	 17.02	 1.86	 1.54	-3.06	-32.71	-7.20	-7.18	 1.98	-3.88	 12.52	 0.29	-15.14	 0.00	-4.88	 29.89	 6.48	 22.27	 0.00	-16.91	 23.07	 0.00	 0.00	 0.00	 10.98	 0.00	 14.67	-19.33	 10.71	-8.93	 0.00	-22.29	-12.92	 0.00	 0.00	 0.00	-3.69	 44.10	 0.00	 6.50	-36.52	 3.80	
 2.23	 39.83	 1.52	 5.16	-9.07	 5.32	 0.99	 5.32	-0.09	-3.21	 9.68	 26.14	-3.84	-2.51	 1.75	-6.71	 17.14	 1.99	 1.31	-2.39	-32.53	-7.20	-7.20	 1.98	-3.98	 11.78	 0.44	-15.34	 0.00	-5.66	 29.25	 5.46	 23.49	 0.00	-16.63	 23.54	 0.00	 0.00	 0.00	 11.65	 0.00	 15.22	-20.07	 9.02	-11.51	 0.00	-20.42	-12.66	 0.00	 0.00	 0.00	-3.38	 44.65	 0.00	 6.52	-36.32	 4.00	
 2.63	 39.73	 1.82	 4.62	-9.36	 5.10	-0.27	 7.22	 0.03	-1.43	 7.10	 28.08	-3.84	-2.82	 1.73	-6.67	 17.00	 1.96	 1.14	-0.77	-32.24	-7.20	-7.46	 1.94	-3.71	 11.32	 0.19	-15.42	 0.00	-6.29	 28.33	 3.92	 22.48	 0.00	-16.60	 23.62	 0.00	 0.00	 0.00	 12.51	 0.00	 15.52	-21.03	 6.67	-13.33	 0.00	-19.65	-12.93	 0.00	 0.00	 0.00	-2.78	 45.04	 0.00	 6.34	-36.18	 4.04	
 3.01	 39.63	 2.08	 3.98	-9.71	 4.79	-1.03	 8.90	 0.16	-0.18	 5.20	 29.17	-3.84	-3.26	 1.70	-6.65	 16.03	 1.84	 1.24	 2.45	-31.76	-7.20	-7.77	 1.90	-3.56	 11.16	-0.29	-15.13	 0.00	-6.80	 27.09	 1.68	 18.66	 0.00	-16.90	 23.20	 0.00	 0.00	 0.00	 13.58	 0.00	 15.82	-21.89	 3.66	-13.84	 0.00	-19.86	-13.40	 0.00	 0.00	 0.00	-1.57	 45.10	 0.00	 5.73	-35.95	 3.92	
 3.38	 39.58	 2.28	 3.44	-10.00	 4.13	-1.50	 10.32	 0.27	 0.37	 3.66	 30.02	-3.84	-3.43	 1.69	-7.05	 13.74	 1.68	 1.80	 7.65	-30.94	-7.20	-7.75	 1.91	-3.65	 11.21	-0.73	-14.56	 0.00	-7.46	 25.78	-0.97	 11.99	 0.00	-17.72	 22.12	 0.00	 0.00	 0.00	 14.77	 0.00	 16.40	-22.63	 0.23	-11.84	 0.00	-20.82	-13.78	 0.00	 0.00	 0.00	-0.63	 44.95	 0.00	 5.69	-35.72	 4.41	
 3.74	 39.61	 2.40	 2.88	-10.04	 3.02	-1.64	 11.08	 0.31	 0.22	 2.83	 31.11	-3.84	-3.38	 1.69	-7.96	 10.05	 1.40	 3.07	 14.37	-29.83	-7.19	-6.62	 2.05	-3.70	 11.30	-0.98	-14.11	 0.00	-8.36	 25.15	-3.68	 1.77	 0.00	-19.55	 19.98	 0.00	 0.00	 0.00	 15.90	 0.00	 17.42	-23.53	-3.17	-6.13	 0.00	-22.60	-14.24	 0.00	 0.00	 0.00	-0.44	 44.71	 0.00	 6.33	-35.52	 5.67	
 4.09	 39.71	 2.45	 1.99	-9.85	 1.77	-1.16	 10.75	 0.22	-0.44	 3.40	 32.16	-3.84	-3.39	 1.69	-8.93	 5.58	 0.88	 5.30	 21.28	-29.48	-7.16	-4.17	 2.36	-3.19	 11.45	-1.29	-13.76	 0.00	-9.44	 25.59	-6.38	-10.43	 0.00	-23.11	 16.74	 0.00	 0.00	 0.00	 16.48	 0.00	 18.80	-24.76	-6.32	 3.77	 0.00	-25.82	-15.14	 0.00	 0.00	 0.00	-0.83	 44.29	 0.00	 7.11	-35.40	 7.17	
 4.41	 39.84	 2.45	 0.82	-9.46	 0.93	 0.11	 9.18	-0.02	-1.69	 5.70	 32.64	-3.84	-3.20	 1.70	-9.85	 1.23	 0.21	 9.05	 26.95	-31.14	-7.14	-1.33	 2.72	-2.11	 11.74	-1.68	-13.46	 0.00	-10.82	 27.30	-9.28	-21.87	 0.00	-29.01	 13.03	 0.00	 0.00	 0.00	 16.27	 0.00	 20.16	-26.88	-9.20	 16.46	 0.00	-31.54	-16.66	 0.00	 0.00	 0.00	-1.05	 43.36	 0.00	 7.18	-34.96	 7.81	
 4.65	 40.00	 2.41	-0.44	-8.90	 0.76	 2.32	 6.10	-0.25	-4.00	 10.22	 32.17	-3.84	-2.66	 1.74	-10.56	-2.57	-0.48	 14.03	 30.91	-33.85	-7.14	 0.36	 2.93	-0.78	 12.21	-1.95	-12.82	 0.00	-12.13	 30.07	-12.97	-31.69	 0.00	-37.37	 9.65	 0.00	 0.00	 0.00	 15.17	 0.00	 21.04	-30.28	-12.27	 28.54	 0.00	-40.57	-18.48	 0.00	 0.00	 0.00	-0.64	 41.83	 0.00	 6.45	-34.40	 7.29	
